HIERARCHY
ROOT Hips
{
	OFFSET -0.001795 -0.223333 0.028219
	CHANNELS 6 Xposition Yposition Zposition Zrotation Yrotation Xrotation 
	JOINT LeftUpLeg
	{
		OFFSET 0.069520 -0.091406 -0.006815
		CHANNELS 3 Zrotation Yrotation Xrotation
		JOINT LeftLeg
		{
			OFFSET 0.034277 -0.375199 -0.004496
			CHANNELS 3 Zrotation Yrotation Xrotation
			JOINT LeftFoot
			{
				OFFSET -0.013596 -0.397961 -0.043693
				CHANNELS 3 Zrotation Yrotation Xrotation
				JOINT LeftToe
				{
					OFFSET 0.026358 -0.055791 0.119288
					CHANNELS 3 Zrotation Yrotation Xrotation
					End Site
					{
						OFFSET 0.000000 0.000000 0.000000
					}
				}
			}
		}
	}
	JOINT RightUpLeg
	{
		OFFSET -0.067670 -0.090522 -0.004320
		CHANNELS 3 Zrotation Yrotation Xrotation
		JOINT RightLeg
		{
			OFFSET -0.038290 -0.382569 -0.008850
			CHANNELS 3 Zrotation Yrotation Xrotation
			JOINT RightFoot
			{
				OFFSET 0.015774 -0.398415 -0.042312
				CHANNELS 3 Zrotation Yrotation Xrotation
				JOINT RightToe
				{
					OFFSET -0.025372 -0.048144 0.123348
					CHANNELS 3 Zrotation Yrotation Xrotation
					End Site
					{
						OFFSET 0.000000 0.000000 0.000000
					}
				}
			}
		}
	}
	JOINT Spine
	{
		OFFSET -0.002533 0.108963 -0.026696
		CHANNELS 3 Zrotation Yrotation Xrotation
		JOINT Spine1
		{
			OFFSET 0.005487 0.135180 0.001092
			CHANNELS 3 Zrotation Yrotation Xrotation
			JOINT Spine2
			{
				OFFSET 0.001457 0.052922 0.025425
				CHANNELS 3 Zrotation Yrotation Xrotation
				JOINT Neck
				{
					OFFSET -0.002778 0.213870 -0.042857
					CHANNELS 3 Zrotation Yrotation Xrotation
					JOINT Head
					{
						OFFSET 0.005152 0.064970 0.051349
						CHANNELS 3 Zrotation Yrotation Xrotation
						End Site
						{
							OFFSET 0.000000 0.000000 0.000000
						}
					}
				}
				JOINT LeftShoulder
				{
					OFFSET 0.078845 0.121749 -0.034090
					CHANNELS 3 Zrotation Yrotation Xrotation
					JOINT LeftArm
					{
						OFFSET 0.090977 0.030469 -0.008868
						CHANNELS 3 Zrotation Yrotation Xrotation
						JOINT LeftForeArm
						{
							OFFSET 0.259612 -0.012772 -0.027456
							CHANNELS 3 Zrotation Yrotation Xrotation
							JOINT LeftHand
							{
								OFFSET 0.249234 0.008986 -0.001171
								CHANNELS 3 Zrotation Yrotation Xrotation
								End Site
								{
									OFFSET 0.000000 0.000000 0.000000
								}
							}
						}
					}
				}
				JOINT RightShoulder
				{
					OFFSET -0.081759 0.118833 -0.038615
					CHANNELS 3 Zrotation Yrotation Xrotation
					JOINT RightArm
					{
						OFFSET -0.096012 0.032551 -0.009143
						CHANNELS 3 Zrotation Yrotation Xrotation
						JOINT RightForeArm
						{
							OFFSET -0.253742 -0.013329 -0.021401
							CHANNELS 3 Zrotation Yrotation Xrotation
							JOINT RightHand
							{
								OFFSET -0.255298 0.007772 -0.005559
								CHANNELS 3 Zrotation Yrotation Xrotation
								End Site
								{
									OFFSET 0.000000 0.000000 0.000000
								}
							}
						}
					}
				}
			}
		}
	}
}
MOTION
Frames: 17
Frame Time: 0.050000
0.260755 1.353242 0.114080 -2.731670 -36.291996 11.956755 8.850597 0.705104 -7.707195 -5.737015 2.514080 12.528832 0.827350 5.777141 41.219366 0.000000 0.000000 0.000000 -5.248227 2.381522 -19.097308 -0.253922 2.427793 20.396126 7.935538 -5.399233 27.674508 0.000000 0.000000 0.000000 4.145200 -0.498002 16.420761 -3.608087 1.640837 -32.931578 -3.299446 7.648010 31.222618 8.452465 -3.160881 -41.979893 0.000000 0.000000 0.000000 2.778047 5.078994 -2.378303 -10.614575 -13.851390 -1.724411 15.069193 -5.728547 0.085180 0.000000 0.000000 0.000000 10.410300 -24.861116 -14.408689 20.216106 5.614627 -1.710601 -8.183823 7.793125 -0.431748 0.000000 0.000000 0.000000 
0.251491 1.366631 0.104989 -2.160552 -33.062434 11.952798 8.960725 0.669247 -9.703162 -5.849548 2.226872 11.607160 -0.496350 5.177919 41.814437 0.000000 0.000000 0.000000 -6.037008 2.237317 -18.776854 -0.101565 1.946924 18.467771 8.999529 -3.569195 28.381895 0.000000 0.000000 0.000000 4.815015 -0.720956 14.455929 -4.426733 1.573618 -30.392642 -2.918634 6.739092 29.855777 7.246462 -2.850855 -39.431706 0.000000 0.000000 0.000000 1.561080 8.259459 -3.433282 -14.044200 -14.017135 -1.824331 16.104290 -8.485382 -0.133285 0.000000 0.000000 0.000000 8.648498 -24.455463 -13.127968 25.282505 5.066537 -2.264501 -12.902835 9.518465 -0.960295 0.000000 0.000000 0.000000 
0.242751 1.349416 0.096085 -1.747597 -30.774480 11.051116 8.225876 0.400956 -8.492487 -5.930608 2.030101 10.780338 -0.808906 4.107549 37.011555 0.000000 0.000000 0.000000 -7.247749 2.134364 -18.800388 1.025816 1.611415 18.310204 9.000548 -3.496812 29.523425 0.000000 0.000000 0.000000 5.020129 -0.789124 13.933799 -3.955785 1.572634 -31.289609 -2.911773 6.977899 31.139392 8.761039 -3.266112 -39.447650 0.000000 0.000000 0.000000 2.908953 12.383401 -5.024669 -19.201849 -15.323489 -1.824565 16.233589 -12.550482 -0.399744 0.000000 0.000000 0.000000 5.474336 -24.237804 -11.414274 28.033999 5.261636 -2.736658 -13.669859 10.151196 -1.056109 0.000000 0.000000 0.000000 
0.234178 1.307718 0.086255 -2.060531 -28.866835 10.999330 7.351360 0.193695 -7.833526 -4.998284 1.436936 8.493729 -1.011387 4.015164 36.504924 0.000000 0.000000 0.000000 -7.115529 2.233792 -20.026449 0.607304 1.514000 17.460218 9.429460 -2.390620 29.300822 0.000000 0.000000 0.000000 5.057593 -0.830751 13.135885 -3.038257 1.363012 -30.763644 -1.417598 8.246436 31.127361 8.747142 -3.038826 -38.665042 0.000000 0.000000 0.000000 3.054655 14.365929 -5.623482 -22.797374 -15.923549 -1.722868 16.335075 -14.226902 -0.590403 0.000000 0.000000 0.000000 2.042130 -24.912595 -10.065328 30.015695 5.202257 -3.103720 -15.701238 11.499002 -1.332527 0.000000 0.000000 0.000000 
0.224263 1.237138 0.074442 -1.802087 -25.787180 10.335332 6.476244 0.011251 -7.673819 -3.319692 0.909814 8.542110 -1.010559 4.341267 35.725345 0.000000 0.000000 0.000000 -8.128813 2.050950 -19.800754 1.207236 0.999955 14.897068 9.697748 -2.226059 31.158449 0.000000 0.000000 0.000000 5.358221 -0.901133 12.263134 -3.139409 1.319940 -30.120231 -0.795245 8.028814 31.582943 10.168757 -3.710496 -37.125320 0.000000 0.000000 0.000000 4.452460 13.938971 -5.263326 -25.657997 -15.600709 -1.724630 17.436434 -12.816578 -0.613948 0.000000 0.000000 0.000000 -0.267604 -23.315462 -8.511468 30.210813 5.284166 -3.216772 -16.423530 11.761660 -1.359155 0.000000 0.000000 0.000000 
0.211778 1.145517 0.058505 -2.504739 -23.531846 9.777932 7.732245 0.120710 -8.161118 -3.280551 1.051768 11.742838 -0.333273 4.069219 28.228777 0.000000 0.000000 0.000000 -6.356834 2.074903 -19.968983 1.202793 0.945047 14.845189 9.949982 -2.000993 32.469928 0.000000 0.000000 0.000000 6.405144 -1.048367 11.793861 -2.462008 1.098988 -29.216733 -2.056112 9.129349 31.801604 10.810068 -4.038587 -35.098550 0.000000 0.000000 0.000000 5.452855 15.667018 -5.606991 -28.299621 -15.692545 -1.743834 18.298916 -15.217761 -0.998576 0.000000 0.000000 0.000000 1.104568 -22.113293 -8.529871 30.141335 5.423722 -3.247925 -18.042295 12.983051 -1.535999 0.000000 0.000000 0.000000 
0.197530 1.034290 0.037261 -1.114773 -20.605199 8.237796 5.890300 -0.153774 -11.052008 -1.835279 1.279122 21.653259 -1.175701 1.065132 15.458955 0.000000 0.000000 0.000000 -5.575454 2.187338 -21.372967 0.174033 2.015607 22.670749 7.619041 0.264476 22.465683 0.000000 0.000000 0.000000 5.621813 -1.062005 14.092567 -5.123189 1.610126 -29.240164 -1.612242 7.618583 32.273655 12.433365 -4.975946 -33.880397 0.000000 0.000000 0.000000 4.705909 13.389148 -4.812873 -29.070217 -13.087524 -2.328289 19.754955 -18.012260 -1.514787 0.000000 0.000000 0.000000 3.667417 -21.450750 -9.117667 31.946324 5.386129 -3.474293 -17.813815 14.102821 -1.585061 0.000000 0.000000 0.000000 
0.185655 0.934038 0.011926 -1.976201 -18.566047 4.972391 6.274748 -0.085426 -13.780632 -2.773150 3.071005 35.677487 1.597325 3.721217 1.742917 0.000000 0.000000 0.000000 -1.688960 3.216772 -25.644611 0.748365 4.296600 39.285321 -1.345138 -4.406018 1.357426 0.000000 0.000000 0.000000 5.916477 -1.284740 20.250242 -5.281274 1.650543 -29.777759 -0.944799 8.903110 31.759184 11.905117 -3.388446 -39.124545 0.000000 0.000000 0.000000 -1.357145 10.418117 -4.084431 -31.185165 -14.438532 -2.270806 22.474408 -18.311346 -2.199644 0.000000 0.000000 0.000000 11.382177 -21.450080 -11.313074 34.400257 5.929585 -3.651012 -22.031495 15.628308 -1.993233 0.000000 0.000000 0.000000 
0.178772 0.882011 -0.012527 -3.183802 -15.000669 2.210235 5.955639 -0.162321 -18.939908 -1.431940 3.389752 50.697909 4.234692 7.517392 -7.866817 0.000000 0.000000 0.000000 0.004164 3.786553 -28.038602 3.892484 3.667671 49.629521 -5.575283 -12.442740 -4.968751 0.000000 0.000000 0.000000 7.254362 -1.892020 27.085027 -6.012357 1.857574 -33.187922 -0.983301 5.760429 34.222249 9.548109 -2.045627 -42.679796 0.000000 0.000000 0.000000 -9.677987 6.738909 -3.051248 -37.988094 -14.410130 -2.939196 24.998749 -19.609189 -2.544626 0.000000 0.000000 0.000000 15.464932 -17.848586 -10.687052 43.856545 4.789146 -5.194753 -23.492452 21.663538 -2.999506 0.000000 0.000000 0.000000 
0.176267 0.881030 -0.030977 -3.364120 -12.642127 2.118781 4.492846 -0.550397 -20.344825 -0.438504 2.223039 52.917997 4.777440 8.485713 -8.783584 0.000000 0.000000 0.000000 1.046390 4.192235 -29.765366 4.020326 3.151587 50.948219 -6.509925 -15.641915 -3.146177 0.000000 0.000000 0.000000 7.084796 -2.052041 27.594627 -5.620905 1.743842 -30.304660 -0.119377 5.599669 32.454821 9.775072 -1.984029 -42.227728 0.000000 0.000000 0.000000 -12.722043 3.951314 -2.108508 -49.299729 -13.510612 -3.349531 21.800340 -22.983385 -2.481306 0.000000 0.000000 0.000000 20.351697 -15.801400 -10.642111 51.792664 2.911437 -6.620140 -21.042791 26.437601 -2.969176 0.000000 0.000000 0.000000 
0.177305 0.895974 -0.044725 -3.107269 -11.303893 2.800179 3.651106 -0.759793 -18.981954 -1.826746 2.347415 48.570029 4.736154 8.759559 -7.015647 0.000000 0.000000 0.000000 -0.477448 3.766557 -29.822186 5.252528 1.726765 47.236003 -6.557712 -16.506160 0.318598 0.000000 0.000000 0.000000 7.625479 -2.219125 26.057405 -6.456482 1.911625 -30.376251 0.103373 5.364735 33.334722 8.701064 -1.623375 -41.460516 0.000000 0.000000 0.000000 -16.452727 5.447593 -3.267657 -55.976904 -10.619681 -4.868002 15.674988 -28.161443 -1.642832 0.000000 0.000000 0.000000 22.376033 -16.732652 -11.689728 58.862305 -1.318712 -9.461766 -15.050180 30.618561 -1.865234 0.000000 0.000000 0.000000 
0.181061 0.911482 -0.057571 -2.838517 -10.840588 3.023118 2.286963 -0.927778 -16.376918 -2.318687 1.956002 41.670179 4.393603 8.032165 -7.148881 0.000000 0.000000 0.000000 -1.667282 3.255238 -28.375712 5.277977 1.182171 41.764384 -5.708036 -14.919354 2.224889 0.000000 0.000000 0.000000 8.271276 -2.251427 23.723959 -6.890186 2.010332 -29.135676 0.332142 5.733665 34.031164 8.928842 -1.912838 -39.663153 0.000000 0.000000 0.000000 -17.747106 5.727365 -3.656336 -59.482965 -7.299695 -6.693701 9.408144 -32.813786 -0.194947 0.000000 0.000000 0.000000 22.405569 -17.996710 -12.372193 63.385574 -5.301906 -12.194843 -10.248452 33.933478 -0.638668 0.000000 0.000000 0.000000 
0.186490 0.920030 -0.072086 -2.661603 -10.121071 3.407100 0.879945 -1.026003 -14.036083 -1.525572 1.004141 35.509708 4.266436 8.005733 -6.097311 0.000000 0.000000 0.000000 -2.386068 3.119096 -28.803205 5.500660 0.757697 39.217922 -5.315822 -14.728622 5.198449 0.000000 0.000000 0.000000 8.727045 -2.291503 22.282032 -7.216213 2.084854 -28.928570 0.234100 5.176171 33.810978 8.499704 -1.832256 -39.003763 0.000000 0.000000 0.000000 -17.612854 7.172762 -4.430367 -59.888126 -6.210086 -7.183164 6.405398 -34.411576 0.696978 0.000000 0.000000 0.000000 21.399852 -18.884664 -12.699493 64.385498 -8.306494 -13.924931 -8.320821 36.043586 -0.150035 0.000000 0.000000 0.000000 
0.192689 0.922866 -0.090567 -2.468687 -9.810373 4.275693 0.197439 -1.060430 -13.184910 -1.034723 0.509550 30.635062 3.924567 7.220905 -6.145835 0.000000 0.000000 0.000000 -3.997509 3.035866 -30.962684 6.253653 0.247756 37.614764 -5.639861 -15.937751 7.738893 0.000000 0.000000 0.000000 8.962465 -2.254251 20.761832 -7.531389 2.151065 -28.470970 0.655356 6.018499 34.099346 9.445616 -2.103939 -38.950770 0.000000 0.000000 0.000000 -17.854349 6.727591 -4.440807 -57.287676 -7.469304 -6.387007 6.791859 -35.318878 0.433897 0.000000 0.000000 0.000000 21.091632 -21.369103 -13.955519 63.879215 -10.625672 -14.896201 -5.835784 36.200265 0.666324 0.000000 0.000000 0.000000 
0.197834 0.925143 -0.112753 -2.203644 -9.302646 4.285400 0.171293 -0.996599 -12.101210 -1.179581 0.391312 27.404296 3.164332 5.718284 -4.686135 0.000000 0.000000 0.000000 -5.538386 2.834531 -32.621611 6.780024 -0.109132 37.005933 -5.146698 -15.317022 9.706314 0.000000 0.000000 0.000000 8.151271 -2.163670 21.309284 -7.277327 2.098797 -28.532745 -0.045811 5.831530 33.797099 10.166545 -2.320410 -39.584596 0.000000 0.000000 0.000000 -17.304098 6.489818 -4.267118 -53.858543 -9.016511 -5.452908 6.993519 -36.741959 0.286763 0.000000 0.000000 0.000000 22.618235 -22.249224 -15.019549 62.434842 -12.092878 -15.220678 -4.915671 37.438705 0.954266 0.000000 0.000000 0.000000 
0.200446 0.926966 -0.135610 -2.483191 -8.882811 5.025557 0.852915 -0.983952 -12.896805 -1.394412 0.387245 26.077459 2.856641 5.065349 -4.302098 0.000000 0.000000 0.000000 -6.120127 2.903698 -34.902999 7.757336 -0.632902 36.680805 -5.235929 -15.709948 11.007210 0.000000 0.000000 0.000000 7.304454 -2.055997 21.592284 -6.932702 2.026680 -28.347083 -0.316418 5.075876 33.394653 11.098153 -2.528922 -40.972157 0.000000 0.000000 0.000000 -16.555802 7.616295 -4.701316 -50.919777 -11.616109 -4.137582 10.067263 -36.523589 -0.685179 0.000000 0.000000 0.000000 22.882463 -23.884003 -16.366062 60.840281 -13.254143 -15.235700 -3.897192 37.523039 1.113941 0.000000 0.000000 0.000000 
0.200464 0.932149 -0.155324 -3.197365 -9.550545 5.537663 2.079266 -0.848929 -13.063457 -1.797349 0.536614 24.402885 2.896343 5.491554 -3.100373 0.000000 0.000000 0.000000 -6.459596 3.131319 -36.986350 8.709289 -0.973588 36.378846 -4.734338 -15.231538 13.070872 0.000000 0.000000 0.000000 6.283442 -1.853012 21.954632 -5.901664 1.799354 -29.423860 -0.359855 4.934767 34.041518 10.822324 -2.414732 -41.477746 0.000000 0.000000 0.000000 -16.210642 7.871784 -4.657552 -47.883239 -14.089735 -3.172462 13.360748 -34.493076 -1.576288 0.000000 0.000000 0.000000 23.144674 -25.438565 -17.670722 58.419395 -14.011948 -14.918846 -2.739028 37.691134 1.354544 0.000000 0.000000 0.000000 
